<svg width="350" height="75" viewBox="0 0 350 75" fill="none" xmlns="http://www.w3.org/2000/svg">
<g clip-path="url(#clip0_109_180)">
<path d="M20.9427 39.3227C22.2548 39.3227 23.3184 38.27 23.3184 36.9715C23.3184 35.673 22.2548 34.6204 20.9427 34.6204C19.6306 34.6204 18.5669 35.673 18.5669 36.9715C18.5669 38.27 19.6306 39.3227 20.9427 39.3227Z" fill="#6B7B8C"/>
<path d="M0 0H42.3781V73.9429H0L27.7412 66.8682V7.07467L0 0Z" fill="#6B7B8C"/>
<path d="M350 43.9931L338.568 59.2208H284.622V0H349.832L338.325 15.4009H302.12V22.4721H346.717L335.206 35.9284H302.12V43.9825L350 43.9931Z" fill="#D9E4E9"/>
<path d="M117.399 43.9931L105.749 59.2208H52.0171V0H117.231L105.477 15.4009H69.5192V22.4721H114.116L102.555 35.9284H69.5192V43.9825L117.399 43.9931Z" fill="#D9E4E9"/>
<path d="M184.371 43.9931L172.939 59.2208H119.185V0H137.795V43.9931H184.371Z" fill="#D9E4E9"/>
<path d="M204.967 59.2208H186.389V0H204.967V59.2208Z" fill="#D9E4E9"/>
<path d="M282.264 0L270.831 15.4009H250.978V59.2208H233.616V15.4009H207.085L218.518 0H282.264Z" fill="#D9E4E9"/>
<path d="M66.7325 71.8958L64.4997 74.8127H58.8514C54.9501 74.8127 52.0635 72.3378 52.0635 69.0249C52.0635 65.7121 54.9216 63.46 58.8514 63.46H66.7325L64.4997 66.4122H58.8514C56.9686 66.4122 55.5539 67.5506 55.5539 69.1805C55.5539 70.8104 56.9508 71.8958 58.8514 71.8958H66.7325Z" fill="#AAB8C2"/>
<path d="M84.0274 69.1275C84.0274 73.1863 81.273 75.0001 75.8105 75.0001C70.348 75.0001 67.5935 73.1863 67.5935 69.1275C67.5935 65.0687 70.3337 63.2726 75.8105 63.2726C81.2873 63.2726 84.0274 65.0722 84.0274 69.1275ZM80.5656 69.1275C80.5656 66.6844 79.3045 66.2248 75.8105 66.2248C72.3165 66.2248 71.0518 66.6844 71.0518 69.1275C71.0518 71.5706 72.3129 72.0479 75.8105 72.0479C79.308 72.0479 80.5656 71.5706 80.5656 69.1275Z" fill="#AAB8C2"/>
<path d="M93.0696 67.6849C94.0628 69.435 94.4986 70.2836 94.8844 71.0791C95.2417 70.2836 95.6919 69.4492 96.6707 67.7026L98.457 64.4782C98.6283 64.1159 98.902 63.8105 99.2451 63.5991C99.5881 63.3876 99.9857 63.2791 100.39 63.2867C100.847 63.2854 101.29 63.4402 101.645 63.7249C101.999 64.0096 102.244 64.4068 102.337 64.8494L105.177 74.8268H101.715L100.643 70.874C100.286 69.5835 100.054 68.6678 99.8682 67.7521C99.511 68.5476 99.0787 69.4138 98.307 70.8917L96.8172 73.7272C96.2313 74.848 95.6597 75 94.8201 75C93.9806 75 93.3911 74.848 92.8195 73.7272L91.3047 70.8599C90.483 69.2972 90.0793 68.5017 89.7256 67.738C89.5577 68.636 89.3041 69.5871 88.9682 70.8599L87.8964 74.8126H84.4846L87.3927 64.8353C87.4888 64.391 87.7367 63.993 88.0946 63.7083C88.4524 63.4237 88.8985 63.2698 89.3576 63.2726C89.7586 63.2688 90.152 63.3809 90.4895 63.595C90.8271 63.8091 91.0943 64.1161 91.2583 64.4782L93.0696 67.6849Z" fill="#AAB8C2"/>
<path d="M114.23 67.685C115.223 69.4351 115.659 70.2836 116.045 71.0791C116.402 70.2836 116.852 69.4492 117.831 67.7026L119.618 64.4782C119.786 64.1158 120.057 63.8092 120.397 63.5953C120.737 63.3815 121.133 63.2694 121.536 63.2726C121.993 63.2713 122.436 63.426 122.791 63.7108C123.146 63.9955 123.39 64.3927 123.483 64.8353L126.341 74.8127H122.897L121.825 70.8599C121.468 69.5694 121.236 68.6537 121.054 67.738C120.697 68.5335 120.261 69.3997 119.489 70.8776L117.974 73.7272C117.388 74.848 116.817 75.0001 115.977 75.0001C115.138 75.0001 114.548 74.848 113.976 73.7272L112.462 70.8599C111.64 69.2972 111.236 68.5017 110.883 67.738C110.715 68.636 110.461 69.5871 110.125 70.8599L109.053 74.8127H105.642L108.55 64.8353C108.646 64.391 108.894 63.993 109.252 63.7084C109.609 63.4237 110.055 63.2698 110.515 63.2726C110.916 63.2684 111.309 63.3802 111.647 63.5944C111.985 63.8086 112.252 64.1158 112.415 64.4782L114.23 67.685Z" fill="#AAB8C2"/>
<path d="M140.685 71.8958L138.452 74.8127H127.627V63.46H140.653L138.402 66.4122H131.114V67.7698H140.046L138.045 70.3508H131.114V71.8958H140.685Z" fill="#AAB8C2"/>
<path d="M157.83 74.8127H153.186L150.685 71.811H145.326V74.8127H141.832V69.0108H151.614C152.686 69.0108 153.529 68.5158 153.529 67.738C153.529 66.8541 152.814 66.4122 151.614 66.4122H141.832L144.101 63.46H151.328C153.882 63.46 157.112 64.2731 157.112 67.5153C157.141 68.3653 156.859 69.1971 156.318 69.8581C155.778 70.5192 155.014 70.9653 154.168 71.1145C154.731 71.5724 155.259 72.0711 155.747 72.6065L157.83 74.8127Z" fill="#AAB8C2"/>
<path d="M172.974 71.8958L170.738 74.8127H165.09C161.192 74.8127 158.302 72.3378 158.302 69.0249C158.302 65.7121 161.178 63.46 165.09 63.46H172.974L170.738 66.4122H165.09C163.207 66.4122 161.796 67.5506 161.796 69.1805C161.796 70.8104 163.193 71.8958 165.09 71.8958H172.974Z" fill="#AAB8C2"/>
<path d="M177.711 74.8127H174.235V63.46H177.711V74.8127Z" fill="#AAB8C2"/>
<path d="M184.639 74.8126L186.74 71.8957H189.562C190.234 71.8957 191.027 71.8957 191.563 71.9275C191.259 71.521 190.791 70.8244 190.419 70.2835L188.404 67.2783L183.124 74.8126H179.009L186.218 64.5594C186.454 64.1764 186.784 63.8587 187.178 63.6362C187.571 63.4136 188.016 63.2933 188.469 63.2866C188.918 63.2903 189.359 63.4096 189.748 63.6327C190.137 63.8558 190.461 64.1752 190.687 64.5594L197.715 74.8126H184.639Z" fill="#AAB8C2"/>
<path d="M211.14 71.8958L208.886 74.8127H198.958V63.46H202.437V71.8958H211.14Z" fill="#AAB8C2"/>
<path d="M229.425 74.8127H222.112V67.7415H225.509V71.8994H229.439C231.315 71.8994 232.655 70.8104 232.655 69.184C232.655 67.5577 231.254 66.4157 229.439 66.4157H222.112L224.255 63.4635H229.414C233.233 63.4635 235.991 65.7546 235.991 69.0285C235.991 72.3024 233.212 74.8127 229.425 74.8127Z" fill="#AAB8C2"/>
<path d="M253.333 69.1274C253.333 73.1862 250.657 75 245.352 75C240.046 75 237.37 73.1862 237.37 69.1274C237.37 65.0685 240.032 63.2866 245.352 63.2866C250.671 63.2866 253.333 65.0721 253.333 69.1274ZM249.971 69.1274C249.971 66.6843 248.746 66.2247 245.352 66.2247C241.958 66.2247 240.732 66.6843 240.732 69.1274C240.732 71.5705 241.958 72.0478 245.352 72.0478C248.746 72.0478 249.971 71.5705 249.971 69.1274Z" fill="#AAB8C2"/>
<path d="M270.663 69.1274C270.663 73.1862 267.987 75 262.682 75C257.377 75 254.701 73.1862 254.701 69.1274C254.701 65.0685 257.363 63.2866 262.682 63.2866C268.002 63.2866 270.663 65.0721 270.663 69.1274ZM267.301 69.1274C267.301 66.6843 266.076 66.2247 262.682 66.2247C259.288 66.2247 258.063 66.6843 258.063 69.1274C258.063 71.5705 259.288 72.0478 262.682 72.0478C266.076 72.0478 267.301 71.5705 267.301 69.1274Z" fill="#AAB8C2"/>
<path d="M287.865 74.8127H283.343L280.913 71.811H275.722V74.8127H272.343V69.0108H281.842C282.885 69.0108 283.703 68.5158 283.703 67.738C283.703 66.8541 282.989 66.4122 281.842 66.4122H272.343L274.547 63.46H281.563C284.064 63.46 287.18 64.2731 287.18 67.5153C287.212 68.3532 286.942 69.1751 286.419 69.8344C285.895 70.4937 285.152 70.9474 284.321 71.1145C284.87 71.5733 285.384 72.0721 285.858 72.6065L287.865 74.8127Z" fill="#AAB8C2"/>
<path d="M306.564 74.8127H303.017V63.46H306.564V74.8127Z" fill="#AAB8C2"/>
<path d="M318.983 74.3883L311.952 68.1445V74.8126H308.737V65.408C308.737 63.8983 309.662 63.2866 310.676 63.2866C310.944 63.286 311.209 63.34 311.455 63.4452C311.701 63.5505 311.923 63.7047 312.106 63.8983L319.136 70.1421V63.4599H322.377V72.8609C322.377 74.3742 321.451 74.9823 320.423 74.9823C320.154 74.9897 319.886 74.9406 319.638 74.8382C319.39 74.7358 319.167 74.5825 318.983 74.3883Z" fill="#AAB8C2"/>
<path d="M339.039 71.8958L336.756 74.8127H331.001C327.025 74.8127 324.092 72.3378 324.092 69.0249C324.092 65.7121 327.025 63.46 331.001 63.46H339.039L336.756 66.4122H331.001C329.082 66.4122 327.639 67.5506 327.639 69.1805C327.639 70.8104 329.068 71.8958 331.001 71.8958H339.039Z" fill="#AAB8C2"/>
</g>
<defs>
<clipPath id="clip0_109_180">
<rect width="350" height="75" fill="white"/>
</clipPath>
</defs>
</svg>
