<svg width="326" height="89" viewBox="0 0 238 65" fill="none" xmlns="http://www.w3.org/2000/svg">
<path d="M20.4033 33.6665C21.2431 33.6665 21.9238 32.9928 21.9238 32.1617C21.9238 31.3307 21.2431 30.657 20.4033 30.657C19.5636 30.657 18.8828 31.3307 18.8828 32.1617C18.8828 32.9928 19.5636 33.6665 20.4033 33.6665Z" fill="#455270"/>
<path d="M7 8.5H34.122V55.8234H7L24.7544 51.2956V13.0278L7 8.5Z" fill="#455270"/>
<path d="M231 36.6556L223.684 46.4013H189.158V8.5H230.893L223.528 18.3566H200.357V22.8821H228.899L221.532 31.4942H200.357V36.6488L231 36.6556Z" fill="#253040"/>
<path d="M82.1355 36.6556L74.6794 46.4013H40.291V8.5H82.0281L74.5056 18.3566H51.4924V22.8821H80.0343L72.6353 31.4942H51.4924V36.6488L82.1355 36.6556Z" fill="#253040"/>
<path d="M124.997 36.6556L117.68 46.4013H83.2783V8.5H95.1885V36.6556H124.997Z" fill="#253040"/>
<path d="M138.179 46.4013H126.289V8.5H138.179V46.4013Z" fill="#253040"/>
<path d="M187.649 8.5L180.332 18.3566H167.627V46.4013H156.514V18.3566H139.535L146.852 8.5H187.649Z" fill="#253040"/>
<path d="M49.7085 54.5132L48.2795 56.38H44.6646C42.1678 56.38 40.3203 54.7961 40.3203 52.6758C40.3203 50.5556 42.1495 49.1143 44.6646 49.1143H49.7085L48.2795 51.0037H44.6646C43.4596 51.0037 42.5542 51.7323 42.5542 52.7754C42.5542 53.8185 43.4482 54.5132 44.6646 54.5132H49.7085Z" fill="#6E7B8C"/>
<path d="M60.7775 52.7415C60.7775 55.3392 59.0146 56.5 55.5186 56.5C52.0226 56.5 50.2598 55.3392 50.2598 52.7415C50.2598 50.1439 52.0135 48.9944 55.5186 48.9944C59.0238 48.9944 60.7775 50.1461 60.7775 52.7415ZM58.5619 52.7415C58.5619 51.178 57.7548 50.8838 55.5186 50.8838C53.2825 50.8838 52.4731 51.178 52.4731 52.7415C52.4731 54.3051 53.2802 54.6106 55.5186 54.6106C57.7571 54.6106 58.5619 54.3051 58.5619 52.7415Z" fill="#6E7B8C"/>
<path d="M66.5647 51.8184C67.2003 52.9384 67.4793 53.4815 67.7262 53.9906C67.9548 53.4815 68.2429 52.9475 68.8694 51.8297L70.0127 49.766C70.1223 49.5342 70.2975 49.3388 70.517 49.2034C70.7365 49.0681 70.991 48.9986 71.2496 49.0035C71.542 49.0026 71.8256 49.1017 72.0527 49.2839C72.2797 49.4662 72.4362 49.7204 72.4958 50.0036L74.3135 56.3892H72.0979L71.412 53.8594C71.1833 53.0335 71.0347 52.4474 70.9158 51.8614C70.6872 52.3705 70.4105 52.9249 69.9166 53.8707L68.9632 55.6854C68.5882 56.4027 68.2224 56.5 67.685 56.5C67.1477 56.5 66.7705 56.4027 66.4046 55.6854L65.4352 53.8503C64.9093 52.8502 64.6509 52.3411 64.4246 51.8523C64.3171 52.4271 64.1547 53.0357 63.9398 53.8503L63.2539 56.3801H61.0703L62.9315 49.9946C62.993 49.7102 63.1516 49.4555 63.3807 49.2733C63.6097 49.0912 63.8952 48.9927 64.189 48.9944C64.4457 48.992 64.6974 49.0638 64.9135 49.2008C65.1295 49.3379 65.3005 49.5343 65.4054 49.766L66.5647 51.8184Z" fill="#6E7B8C"/>
<path d="M80.107 51.8184C80.7426 52.9385 81.0216 53.4815 81.2685 53.9906C81.4972 53.4815 81.7853 52.9475 82.4118 51.8297L83.555 49.7661C83.6628 49.5341 83.8361 49.3379 84.0539 49.201C84.2717 49.0642 84.5248 48.9924 84.7828 48.9945C85.0751 48.9936 85.3588 49.0927 85.5859 49.2749C85.8129 49.4571 85.9694 49.7114 86.0289 49.9946L87.8581 56.3801H85.654L84.968 53.8503C84.7394 53.0244 84.5907 52.4384 84.4741 51.8523C84.2455 52.3614 83.9665 52.9158 83.4727 53.8617L82.5032 55.6854C82.1282 56.4027 81.7624 56.5 81.2251 56.5C80.6878 56.5 80.3105 56.4027 79.9447 55.6854L78.9752 53.8503C78.4493 52.8502 78.1909 52.3411 77.9646 51.8523C77.8571 52.4271 77.6948 53.0358 77.4799 53.8503L76.7939 56.3801H74.6104L76.4715 49.9946C76.533 49.7102 76.6917 49.4555 76.9207 49.2734C77.1498 49.0912 77.4352 48.9927 77.7291 48.9945C77.9858 48.9918 78.2376 49.0634 78.4537 49.2004C78.6699 49.3375 78.8408 49.5341 78.9455 49.7661L80.107 51.8184Z" fill="#6E7B8C"/>
<path d="M97.0387 54.5132L95.6096 56.38H88.6816V49.1143H97.0181L95.5776 51.0037H90.9132V51.8726H96.6294L95.349 53.5244H90.9132V54.5132H97.0387Z" fill="#6E7B8C"/>
<path d="M108.011 56.38H105.039L103.438 54.4589H100.009V56.38H97.7725V52.6668H104.033C104.719 52.6668 105.258 52.35 105.258 51.8522C105.258 51.2865 104.801 51.0037 104.033 51.0037H97.7725L99.2244 49.1143H103.85C105.485 49.1143 107.552 49.6347 107.552 51.7096C107.57 52.2537 107.39 52.786 107.044 53.2091C106.698 53.6322 106.209 53.9176 105.668 54.0131C106.028 54.3062 106.366 54.6254 106.678 54.968L108.011 56.38Z" fill="#6E7B8C"/>
<path d="M117.704 54.5132L116.273 56.38H112.658C110.163 56.38 108.313 54.7961 108.313 52.6758C108.313 50.5556 110.154 49.1143 112.658 49.1143H117.704L116.273 51.0037H112.658C111.453 51.0037 110.55 51.7323 110.55 52.7754C110.55 53.8185 111.444 54.5132 112.658 54.5132H117.704Z" fill="#6E7B8C"/>
<path d="M120.735 56.38H118.511V49.1143H120.735V56.38Z" fill="#6E7B8C"/>
<path d="M125.169 56.38L126.513 54.5132H128.32C128.749 54.5132 129.257 54.5132 129.6 54.5336C129.406 54.2734 129.106 53.8276 128.868 53.4814L127.579 51.5581L124.199 56.38H121.565L126.18 49.818C126.331 49.5729 126.542 49.3696 126.794 49.2271C127.046 49.0847 127.33 49.0077 127.62 49.0034C127.908 49.0058 128.19 49.0821 128.439 49.2249C128.688 49.3677 128.895 49.5721 129.04 49.818L133.537 56.38H125.169Z" fill="#6E7B8C"/>
<path d="M142.13 54.5132L140.687 56.38H134.333V49.1143H136.56V54.5132H142.13Z" fill="#6E7B8C"/>
<path d="M153.832 56.3802H149.151V51.8546H151.326V54.5157H153.841C155.041 54.5157 155.899 53.8187 155.899 52.7778C155.899 51.737 155.002 51.0061 153.841 51.0061H149.151L150.523 49.1167H153.825C156.269 49.1167 158.034 50.583 158.034 52.6783C158.034 54.7736 156.255 56.3802 153.832 56.3802Z" fill="#6E7B8C"/>
<path d="M169.133 52.7415C169.133 55.3392 167.42 56.5 164.025 56.5C160.63 56.5 158.917 55.3392 158.917 52.7415C158.917 50.1439 160.62 49.0034 164.025 49.0034C167.429 49.0034 169.133 50.1461 169.133 52.7415ZM166.981 52.7415C166.981 51.1779 166.197 50.8838 164.025 50.8838C161.853 50.8838 161.069 51.1779 161.069 52.7415C161.069 54.3051 161.853 54.6105 164.025 54.6105C166.197 54.6105 166.981 54.3051 166.981 52.7415Z" fill="#6E7B8C"/>
<path d="M180.225 52.7415C180.225 55.3392 178.512 56.5 175.117 56.5C171.721 56.5 170.009 55.3392 170.009 52.7415C170.009 50.1439 171.712 49.0034 175.117 49.0034C178.521 49.0034 180.225 50.1461 180.225 52.7415ZM178.073 52.7415C178.073 51.1779 177.289 50.8838 175.117 50.8838C172.945 50.8838 172.16 51.1779 172.16 52.7415C172.16 54.3051 172.945 54.6105 175.117 54.6105C177.289 54.6105 178.073 54.3051 178.073 52.7415Z" fill="#6E7B8C"/>
<path d="M191.234 56.38H188.339L186.784 54.4589H183.462V56.38H181.299V52.6668H187.379C188.046 52.6668 188.57 52.35 188.57 51.8522C188.57 51.2865 188.112 51.0037 187.379 51.0037H181.299L182.71 49.1143H187.2C188.801 49.1143 190.795 49.6347 190.795 51.7096C190.815 52.2459 190.643 52.772 190.307 53.1939C189.972 53.6158 189.497 53.9062 188.965 54.0131C189.317 54.3068 189.645 54.626 189.949 54.968L191.234 56.38Z" fill="#6E7B8C"/>
<path d="M203.201 56.38H200.931V49.1143H203.201V56.38Z" fill="#6E7B8C"/>
<path d="M211.148 56.1085L206.649 52.1125V56.38H204.591V50.3611C204.591 49.3949 205.183 49.0034 205.832 49.0034C206.004 49.003 206.173 49.0376 206.331 49.1049C206.488 49.1723 206.63 49.271 206.747 49.3949L211.247 53.3909V49.1143H213.321V55.131C213.321 56.0994 212.728 56.4886 212.07 56.4886C211.898 56.4934 211.727 56.462 211.568 56.3964C211.409 56.3309 211.266 56.2328 211.148 56.1085Z" fill="#6E7B8C"/>
<path d="M223.985 54.5132L222.523 56.38H218.84C216.295 56.38 214.418 54.7961 214.418 52.6758C214.418 50.5556 216.295 49.1143 218.84 49.1143H223.985L222.523 51.0037H218.84C217.612 51.0037 216.688 51.7323 216.688 52.7754C216.688 53.8185 217.603 54.5132 218.84 54.5132H223.985Z" fill="#6E7B8C"/>
</svg>
