<svg version="1.1" id="Layer_1" xmlns="http://www.w3.org/2000/svg" xmlns:xlink="http://www.w3.org/1999/xlink" x="0px" y="0px" width="141.4px" height="45px" viewBox="0 0 141.4 45" enable-background="new 0 0 141.4 45" xml:space="preserve">
<g>
	<defs>
		<rect id="SVGID_1_" width="141.4" height="45"/>
	</defs>
	<clipPath id="SVGID_2_">
		<use xlink:href="#SVGID_1_" overflow="visible"/>
	</clipPath>
	<path clip-path="url(#SVGID_2_)" fill="#00AEEF" d="M141.4,22.5c0-0.4-0.1-0.7-0.4-0.9L120.7,1.3C120,0.5,119,0,117.8,0H1.4   C0.6,0,0,0.6,0,1.4v42.3C0,44.4,0.6,45,1.4,45h116.5c1.1,0,2.2-0.5,2.9-1.3L141,23.4v0C141.3,23.2,141.4,22.9,141.4,22.5    M131.6,22.5c0,0.3-0.1,0.5-0.3,0.6L117.4,37c-0.5,0.5-1.2,0.9-2,0.9H8c-0.5,0-1-0.4-1-1V8c0-0.5,0.4-1,1-1c0,0,107.4,0,107.4,0   c0.8,0,1.5,0.3,2,0.9l13.9,13.9C131.5,22,131.6,22.2,131.6,22.5"/>
	<polygon clip-path="url(#SVGID_2_)" fill="#00AEEF" points="24.7,23.3 19.2,14.7 14.9,14.7 14.9,30.1 19.2,30.1 19.2,21.2    24.7,30.2 29,30.2 29,14.7 24.7,14.7  "/>
	<path clip-path="url(#SVGID_2_)" fill="#00AEEF" d="M40.4,14.7h-5l-5.8,15.4l4.3,0l0.8-2.3H41l0.8,2.3l4.3,0L40.4,14.7z M36,24.6   l1.9-5.2l2,5.2H36z"/>
	<path clip-path="url(#SVGID_2_)" fill="#00AEEF" d="M58,21.8c1.2-0.8,2-2,2-3.2c0-2-2.2-3.9-4.5-3.9l-8.7,0v15.5h9.7v0   c2.2-0.1,4-2.7,4-4.8C60.6,23.8,59.5,22.4,58,21.8 M50.9,18.4H55c0,0,0.7,0.2,0.7,1.2c0,1-0.7,1.2-0.7,1.2h-4.1V18.4z M55.4,26.8   h-4.5v-3.3h4.5c0,0,1,0,1,1.6C56.5,26.8,55.4,26.8,55.4,26.8"/>
	<path clip-path="url(#SVGID_2_)" fill="#00AEEF" d="M69.2,26.9c-1.9,0-3.5-2-3.5-4.4c0-2.4,1.5-4.4,3.5-4.4c1.3,0,2.4,0.9,3,2.2   h4.6c-0.9-3.4-4-5.9-7.6-5.9c-4.3,0-7.8,3.6-7.8,8.1s3.5,8.1,7.8,8.1c3.7,0,6.8-2.6,7.6-6.2h-4.5C71.8,25.9,70.6,26.9,69.2,26.9"/>
	<path clip-path="url(#SVGID_2_)" fill="#00AEEF" d="M92.7,19.7c-1.1-3.2-4-5.4-7.4-5.4c-4.3,0-7.8,3.6-7.8,8.1c0,1,0.2,1.9,0.5,2.8   c1.1,3.1,4,5.3,7.4,5.3c4.3,0,7.8-3.6,7.8-8.1C93.1,21.4,93,20.5,92.7,19.7 M85.3,26.9c-1.9,0-3.5-2-3.5-4.4c0-2.4,1.6-4.4,3.5-4.4   c1.9,0,3.5,2,3.5,4.4C88.8,24.9,87.2,26.9,85.3,26.9"/>
	<path clip-path="url(#SVGID_2_)" fill="#00AEEF" d="M106.3,17.8c0.2-0.1,0.3-0.1,0.6-0.2l-1.1-3.7l0,0c0,0,0,0,0,0   c0-0.1-0.1-0.1-0.3-0.1c-0.1,0-0.2,0.1-0.2,0.2c0,0,0,0,0,0v0L106.3,17.8z M101.8,22c-0.3-0.9,1.8-2.3,4.6-3.2l0,0c0,0,0,0,0.1,0   c0,0,0.1,0,0.1,0l0,0c0.2,0,0.4-0.1,0.6-0.2c0,0,0,0,0,0c0.1,0,0.1,0,0.1,0v0c1.9-0.5,3.6-0.6,4.7-0.3l1.2-0.3   c-1.1-0.6-3.5-0.6-6.2,0.1l0,0c-0.3,0.1-0.5,0.1-0.6,0.2v0c-3.4,1-5.9,2.8-5.5,4.1c0.3,1.2,3.1,1.5,6.4,0.7l-0.1-0.6   C104.4,23,102,22.9,101.8,22 M113.7,18.3l-6.1,1.7l-0.4-1.2c-0.2,0-0.4,0.1-0.6,0.2l0.3,1.2l-4.8,1.3l0.2,0.7l4.8-1.3l0.3,1.2h0   l0.3,1h0l1.1,4.3h0v0c0,0.1,0.3,0.2,0.5,0.2c0.3-0.1,0.4-0.3,0.4-0.4c0,0,0,0,0,0l0,0l-1.3-4.4c0,0,0,0,0,0l-0.2-0.5l0,0l-0.4-1.4   l5.1-1.4c-0.3,0.9-2,2-4.4,2.7l0.2,0.5c3.3-1,5.5-2.7,5.1-3.9C113.8,18.5,113.8,18.4,113.7,18.3"/>
	<path clip-path="url(#SVGID_2_)" fill="#00AEEF" d="M105.9,13.4h-5.6v5.4C101,16.1,103.2,14,105.9,13.4"/>
	<path clip-path="url(#SVGID_2_)" fill="#00AEEF" d="M114.7,19v-5.6h-5.7C111.9,14,114.1,16.2,114.7,19"/>
	<path clip-path="url(#SVGID_2_)" fill="#00AEEF" d="M100.3,22.5v5.4h5.4C103.1,27.2,101,25.2,100.3,22.5"/>
	<path clip-path="url(#SVGID_2_)" fill="#00AEEF" d="M109.3,27.9h5.4v-5.5C114.1,25.1,112,27.2,109.3,27.9"/>
	<path clip-path="url(#SVGID_2_)" fill="#00AEEF" d="M102,31.1c-0.1,0-0.4,0.1-0.6,0.1c-0.3,0-0.5-0.1-0.7-0.3   c-0.2-0.2-0.4-0.6-0.4-1.1c0-1,0.6-1.4,1.2-1.4c0.2,0,0.4,0,0.4,0.1l-0.1,0.5c-0.1,0-0.2-0.1-0.3-0.1c-0.4,0-0.6,0.2-0.6,0.9   c0,0.7,0.3,0.9,0.5,0.9c0,0,0.1,0,0.1,0v-0.7h-0.2v-0.4h0.7V31.1z"/>
	<path clip-path="url(#SVGID_2_)" fill="#00AEEF" d="M102.7,31.2v-1l-0.6-1.7h0.6l0.2,0.6c0.1,0.2,0.1,0.4,0.1,0.6h0   c0-0.2,0.1-0.4,0.1-0.6l0.2-0.6h0.5l-0.6,1.7v1.1H102.7z"/>
	<path clip-path="url(#SVGID_2_)" fill="#00AEEF" d="M104,28.5c0.2,0,0.4-0.1,0.6-0.1c0.3,0,0.6,0,0.7,0.2c0.2,0.1,0.2,0.3,0.2,0.6   c0,0.3-0.1,0.5-0.4,0.7v0c0.2,0.1,0.3,0.2,0.3,0.5c0.1,0.3,0.1,0.6,0.2,0.7h-0.6c0-0.1-0.1-0.3-0.1-0.6c0-0.3-0.1-0.4-0.3-0.4h-0.1   v1.1H104V28.5z M104.5,29.7L104.5,29.7c0.3,0,0.5-0.2,0.5-0.4c0-0.2-0.1-0.4-0.3-0.4c0,0-0.1,0-0.1,0V29.7z"/>
	<path clip-path="url(#SVGID_2_)" fill="#00AEEF" d="M106.6,31.2c-0.6,0-0.9-0.6-0.9-1.4c0-0.7,0.3-1.4,0.9-1.4   c0.7,0,0.8,0.7,0.8,1.3C107.5,30.8,107.2,31.2,106.6,31.2L106.6,31.2z M106.7,30.7c0.2,0,0.3-0.4,0.3-1c0-0.5-0.1-0.9-0.3-0.9   c-0.2,0-0.3,0.4-0.3,0.9C106.3,30.3,106.4,30.7,106.7,30.7L106.7,30.7z"/>
	<polygon clip-path="url(#SVGID_2_)" fill="#00AEEF" points="108.6,28.9 108.2,28.9 108.2,28.5 109.6,28.5 109.6,28.9 109.2,28.9    109.2,31.2 108.6,31.2  "/>
	<polygon clip-path="url(#SVGID_2_)" fill="#00AEEF" points="111.1,30 110.5,30 110.5,30.7 111.2,30.7 111.2,31.2 109.9,31.2    109.9,28.5 111.1,28.5 111.1,28.9 110.5,28.9 110.5,29.5 111.1,29.5  "/>
	<path clip-path="url(#SVGID_2_)" fill="#00AEEF" d="M112.8,31.1c-0.1,0-0.2,0.1-0.4,0.1c-0.7,0-1-0.6-1-1.3c0-1,0.6-1.4,1.1-1.4   c0.2,0,0.3,0,0.4,0.1l-0.1,0.4c-0.1,0-0.1-0.1-0.2-0.1c-0.3,0-0.6,0.3-0.6,0.9c0,0.6,0.2,0.9,0.6,0.9c0.1,0,0.2,0,0.3,0L112.8,31.1   z"/>
	<polygon clip-path="url(#SVGID_2_)" fill="#00AEEF" points="113.7,28.5 113.7,29.5 114.2,29.5 114.2,28.5 114.7,28.5 114.7,31.2    114.2,31.2 114.2,30 113.7,30 113.7,31.2 113.1,31.2 113.1,28.5  "/>
	<polygon clip-path="url(#SVGID_2_)" fill="#00AEEF" points="114.9,28.5 114.8,28.5 114.8,28.4 115,28.4 115,28.5 115,28.5    115,28.8 114.9,28.8  "/>
	<path clip-path="url(#SVGID_2_)" fill="#00AEEF" d="M115.3,28.7c0,0,0-0.1,0-0.1h0C115.3,28.6,115.3,28.6,115.3,28.7l-0.1,0.1h0   l0-0.1c0,0,0-0.1,0-0.1h0c0,0,0,0.1,0,0.1l0,0.1H115l0-0.4h0.1l0,0.1C115.2,28.6,115.2,28.7,115.3,28.7L115.3,28.7   c-0.1,0-0.1-0.1-0.1-0.1l0-0.1h0.1l0,0.4h-0.1L115.3,28.7z"/>
</g>
</svg>