<?xml version="1.0" encoding="utf-8"?>
<!-- Generator: Adobe Illustrator 26.3.1, SVG Export Plug-In . SVG Version: 6.00 Build 0)  -->
<svg version="1.1" id="TORMAX" xmlns="http://www.w3.org/2000/svg" xmlns:xlink="http://www.w3.org/1999/xlink" x="0px" y="0px"
	 viewBox="0 0 85.04 85.04" style="enable-background:new 0 0 85.04 85.04;" xml:space="preserve">
<style type="text/css">
	.st0{fill:#CD030B;}
	.st1{fill:#FFFFFF;}
</style>
<g>
	<rect class="st0" width="85.04" height="85.04"/>
	<g>
		<path class="st1" d="M19.72,49.86c0.82-1.5,2.22-2.25,3.89-2.25c1.67,0,3.07,0.75,3.89,2.25c0.82,1.5,1.23,3.49,1.23,5.97
			s-0.41,4.47-1.23,5.97c-0.82,1.5-2.22,2.25-3.89,2.25c-1.67,0-3.07-0.75-3.89-2.25c-0.82-1.5-1.23-3.49-1.23-5.97
			S18.9,51.36,19.72,49.86z M23.61,50.28c-1.25,0-2.13,1.85-2.13,5.55c0,1.7,0.23,3.05,0.53,4.05c0.29,1,0.93,1.5,1.6,1.5
			s1.3-0.5,1.6-1.5c0.29-1,0.44-2.35,0.44-4.05C25.65,52.13,24.86,50.28,23.61,50.28z"/>
		<path class="st1" d="M51.16,53.35l-2.64,10.41h-1.14l-2.6-10.41v10.41h-2.93V47.87h3.81l2.29,9.15l2.36-9.15h3.74v15.89h-2.88
			V53.35z"/>
		<path class="st1" d="M62.21,60.83h-3.29l-0.48,2.93h-2.93l3.31-15.89h3.45l3.33,15.89h-2.93L62.21,60.83z M59.28,58.18h2.57
			l-1.29-7.57L59.28,58.18z"/>
		<path class="st1" d="M71.18,58.28l-1.93,5.48h-3.31l3.5-8.1l-3.31-7.79h3.31l1.74,5.19l1.74-5.19h3.33l-3.33,7.77l3.53,8.12h-3.31
			L71.18,58.28z"/>
		<polygon class="st1" points="17.88,47.87 8.73,47.87 8.73,50.53 11.8,50.53 11.8,63.76 14.81,63.76 14.81,50.53 17.88,50.53 		"/>
		<path class="st1" d="M35.6,57.96h-1.92v5.8h-3.01V47.87h4.79c0.83,0,1.57,0.21,2.23,0.63c0.66,0.42,1.18,1.01,1.55,1.76
			c0.37,0.75,0.56,1.6,0.56,2.56c0,1.21-0.2,2.17-0.61,2.88c-0.41,0.71-0.94,1.07-1.15,1.28l1.79,6.79h-3.3L35.6,57.96z M36.3,51.17
			c-0.3-0.43-0.73-0.65-1.29-0.65h-1.33v4.78h1.33c0.56,0,0.99-0.22,1.29-0.65c0.3-0.43,0.45-1.01,0.45-1.74
			C36.75,52.18,36.6,51.6,36.3,51.17z"/>
		<g>
			<polygon class="st1" points="40.38,44.04 42.52,42.49 44.65,44.04 43.84,41.53 45.97,39.98 43.33,39.98 42.52,37.47 41.7,39.98 
				39.06,39.98 41.2,41.53 40.38,44.04 			"/>
			<polygon class="st1" points="48.49,44.04 50.62,42.49 52.76,44.04 51.94,41.53 54.08,39.98 51.44,39.98 50.62,37.47 49.81,39.98 
				47.17,39.98 49.3,41.53 48.49,44.04 			"/>
			<polygon class="st1" points="56.59,44.04 58.72,42.49 60.86,44.04 60.04,41.53 62.18,39.98 59.54,39.98 58.72,37.47 57.91,39.98 
				55.27,39.98 57.4,41.53 56.59,44.04 			"/>
			<polygon class="st1" points="32.28,44.04 34.42,42.49 36.55,44.04 35.74,41.53 37.87,39.98 35.23,39.98 34.42,37.47 33.6,39.98 
				30.96,39.98 33.1,41.53 32.28,44.04 			"/>
			<polygon class="st1" points="24.18,44.04 26.31,42.49 28.45,44.04 27.63,41.53 29.77,39.98 27.13,39.98 26.31,37.47 25.5,39.98 
				22.86,39.98 24.99,41.53 24.18,44.04 			"/>
		</g>
	</g>
</g>
</svg>
